<svg width="73" height="73" viewBox="0 0 73 73" fill="none" xmlns="http://www.w3.org/2000/svg">
<path d="M23.4069 13.7764L49.3823 13.7764L62.37 36.2717L49.3823 58.767L23.4069 58.767L10.4193 36.2717L23.4069 13.7764Z" fill="#1F252E" stroke="url(#paint0_linear_904_133)"/>
<path d="M35.364 26.4158L29.9582 28.4525C28.7124 28.9183 27.694 30.3917 27.694 31.7133V39.7625C27.694 41.0408 28.539 42.72 29.5682 43.4892L34.2265 46.9667C35.754 48.115 38.2674 48.115 39.7949 46.9667L44.4532 43.4892C45.4824 42.72 46.3274 41.0408 46.3274 39.7625V31.7133C46.3274 30.3808 45.309 28.9075 44.0632 28.4417L38.6574 26.4158C37.7365 26.08 36.2632 26.08 35.364 26.4158Z" stroke="url(#paint1_linear_904_133)" stroke-width="2" stroke-linecap="round" stroke-linejoin="round"/>
<path d="M33.804 36.8592L35.5482 38.6033L40.2065 33.945" stroke="url(#paint2_linear_904_133)" stroke-width="2" stroke-linecap="round" stroke-linejoin="round"/>
<defs>
<linearGradient id="paint0_linear_904_133" x1="49.671" y1="13.2764" x2="23.1183" y2="59.267" gradientUnits="userSpaceOnUse">
<stop stop-color="white" stop-opacity="0.31"/>
<stop offset="1" stop-color="white" stop-opacity="0"/>
</linearGradient>
<linearGradient id="paint1_linear_904_133" x1="27.694" y1="34.0108" x2="46.3607" y2="34.2291" gradientUnits="userSpaceOnUse">
<stop stop-color="#2367E8"/>
<stop offset="1" stop-color="#15B785"/>
</linearGradient>
<linearGradient id="paint2_linear_904_133" x1="33.804" y1="35.6323" x2="40.2166" y2="35.7521" gradientUnits="userSpaceOnUse">
<stop stop-color="#2367E8"/>
<stop offset="1" stop-color="#15B785"/>
</linearGradient>
</defs>
</svg>
