<svg width="143" height="33" viewBox="0 0 143 33" fill="none" xmlns="http://www.w3.org/2000/svg">
<path d="M47.065 9.15C47.835 9.15 49.1417 9.29 50.985 9.57L51.825 9.675L51.72 11.81C49.8533 11.6 48.4767 11.495 47.59 11.495C45.6067 11.495 44.2533 11.9733 43.53 12.93C42.83 13.8633 42.48 15.6133 42.48 18.18C42.48 20.7233 42.8067 22.4967 43.46 23.5C44.1367 24.5033 45.525 25.005 47.625 25.005L51.755 24.69L51.86 26.86C49.69 27.1867 48.0683 27.35 46.995 27.35C44.265 27.35 42.375 26.65 41.325 25.25C40.2983 23.85 39.785 21.4933 39.785 18.18C39.785 14.8433 40.345 12.51 41.465 11.18C42.585 9.82667 44.4517 9.15 47.065 9.15ZM53.3891 18.215C53.3891 15.0183 53.9607 12.7083 55.1041 11.285C56.2474 9.86167 58.1724 9.15 60.8791 9.15C63.6091 9.15 65.5341 9.86167 66.6541 11.285C67.7974 12.7083 68.3691 15.0183 68.3691 18.215C68.3691 21.4117 67.8324 23.7333 66.7591 25.18C65.6857 26.6267 63.7257 27.35 60.8791 27.35C58.0324 27.35 56.0724 26.6267 54.9991 25.18C53.9257 23.7333 53.3891 21.4117 53.3891 18.215ZM56.0841 18.18C56.0841 20.7233 56.3874 22.5083 56.9941 23.535C57.6241 24.5617 58.9191 25.075 60.8791 25.075C62.8624 25.075 64.1574 24.5733 64.7641 23.57C65.3707 22.5433 65.6741 20.7467 65.6741 18.18C65.6741 15.6133 65.3357 13.8517 64.6591 12.895C63.9824 11.915 62.7224 11.425 60.8791 11.425C59.0591 11.425 57.7991 11.915 57.0991 12.895C56.4224 13.8517 56.0841 15.6133 56.0841 18.18ZM71.2503 27V9.5H73.8753V27H71.2503ZM71.2503 5.545V2.5H73.8753V5.545H71.2503ZM80.1315 27H77.5065V9.5H80.0965V10.725C81.9865 9.675 83.7949 9.15 85.5215 9.15C87.8549 9.15 89.4182 9.78 90.2115 11.04C91.0282 12.3 91.4365 14.54 91.4365 17.76V27H88.8465V17.83C88.8465 15.4033 88.6015 13.7467 88.1115 12.86C87.6449 11.95 86.6299 11.495 85.0665 11.495C84.3199 11.495 83.5265 11.6117 82.6865 11.845C81.8699 12.055 81.2399 12.265 80.7965 12.475L80.1315 12.79V27ZM108.345 1.87V27H105.755V25.81C103.959 26.8367 102.185 27.35 100.435 27.35C99.502 27.35 98.6854 27.2333 97.9854 27C97.2854 26.7667 96.632 26.3467 96.0254 25.74C94.7654 24.48 94.1354 22.1583 94.1354 18.775C94.1354 15.3683 94.6954 12.9183 95.8154 11.425C96.9587 9.90833 98.837 9.15 101.45 9.15C102.804 9.15 104.239 9.30167 105.755 9.605V1.87H108.345ZM98.0554 23.85C98.4287 24.2933 98.8254 24.5967 99.2454 24.76C99.6654 24.9233 100.202 25.005 100.855 25.005C101.532 25.005 102.279 24.9 103.095 24.69C103.935 24.4567 104.589 24.235 105.055 24.025L105.755 23.71V11.845C104.262 11.565 102.874 11.425 101.59 11.425C99.817 11.425 98.5804 11.9967 97.8804 13.14C97.1804 14.26 96.8304 16.01 96.8304 18.39C96.8304 21.0967 97.2387 22.9167 98.0554 23.85ZM111.261 18.215C111.261 15.0183 111.832 12.7083 112.976 11.285C114.119 9.86167 116.044 9.15 118.751 9.15C121.481 9.15 123.406 9.86167 124.526 11.285C125.669 12.7083 126.241 15.0183 126.241 18.215C126.241 21.4117 125.704 23.7333 124.631 25.18C123.557 26.6267 121.597 27.35 118.751 27.35C115.904 27.35 113.944 26.6267 112.871 25.18C111.797 23.7333 111.261 21.4117 111.261 18.215ZM113.956 18.18C113.956 20.7233 114.259 22.5083 114.866 23.535C115.496 24.5617 116.791 25.075 118.751 25.075C120.734 25.075 122.029 24.5733 122.636 23.57C123.242 22.5433 123.546 20.7467 123.546 18.18C123.546 15.6133 123.207 13.8517 122.531 12.895C121.854 11.915 120.594 11.425 118.751 11.425C116.931 11.425 115.671 11.915 114.971 12.895C114.294 13.8517 113.956 15.6133 113.956 18.18ZM126.962 9.5H129.832L134.102 16.36L138.372 9.5H141.242L135.677 18.18L141.207 27H138.337L134.102 20.175L129.832 27H126.962L132.457 18.25L126.962 9.5Z" fill="white"/>
<g clip-path="url(#clip0_878_890)">
<path d="M29.9999 28.1576C23.1209 34.6141 12.0108 34.6141 5.13184 28.1576L7.58861 25.8517C10.1546 28.2601 13.676 29.7461 17.5522 29.7461C21.4558 29.7461 24.9771 28.2601 27.5158 25.8517L29.9999 28.1576ZM26.6969 25.0574L23.5031 22.0598C20.6095 24.7756 16.1054 25.0831 12.8297 22.9565H15.8871H16.706L19.9544 19.9076L20.0909 19.9588C20.6641 20.1894 21.292 20.0613 21.7287 19.677C22.302 19.139 22.302 18.2422 21.7287 17.7042C21.1555 17.1661 20.2001 17.1661 19.6268 17.7042C19.1901 18.1141 19.0809 18.7034 19.3266 19.2414L19.3539 19.3183L16.3511 22.1366H12.7751L20.1728 15.1933L20.282 15.2446C20.8552 15.4751 21.4831 15.347 21.9198 14.9627C22.4931 14.4247 22.4931 13.5279 21.9198 12.9899C21.3466 12.4519 20.3912 12.4519 19.8179 12.9899C19.3812 13.3998 19.272 13.9891 19.5176 14.5272L19.5722 14.6296L11.6559 22.0342L8.43484 25.0574C10.7824 27.2609 14.0035 28.6188 17.5795 28.6188C21.1282 28.6188 24.3766 27.2609 26.6969 25.0574Z" fill="url(#paint0_linear_878_890)"/>
<path d="M17.5792 4.38121C21.1278 4.38121 24.3762 5.73913 26.6965 7.94255L23.5027 10.9402C20.227 7.86568 14.9313 7.8913 11.6829 10.9402C9.2807 13.1949 8.65286 16.4488 9.77206 19.2671L12.8021 16.3975L12.7475 16.295C12.5018 15.757 12.6383 15.1677 13.0478 14.7578C13.621 14.2197 14.5764 14.2197 15.1497 14.7578C15.7229 15.2958 15.7229 16.1925 15.1497 16.7306C14.7129 17.1405 14.0851 17.243 13.5118 17.0124L13.4026 16.9612L10.1269 20.0357C10.5091 20.7531 11.0277 21.4193 11.6556 22.0085L8.43447 25.0575C6.08689 22.854 4.66741 19.8307 4.66741 16.5C4.66741 9.81289 10.4545 4.38121 17.5792 4.38121ZM5.15877 4.84239C-1.69291 11.2733 -1.72021 21.7267 5.15877 28.1576L7.61555 25.8517C5.07688 23.4433 3.49362 20.1382 3.49362 16.5C3.49362 9.19798 9.82665 3.25388 17.6064 3.25388C21.4827 3.25388 25.0314 4.73991 27.5701 7.14829L30.0268 4.84239C23.1479 -1.61413 12.0105 -1.61413 5.15877 4.84239Z" fill="url(#paint1_linear_878_890)"/>
</g>
<defs>
<linearGradient id="paint0_linear_878_890" x1="5.13184" y1="19.9803" x2="30.041" y2="20.3929" gradientUnits="userSpaceOnUse">
<stop stop-color="#2367E8"/>
<stop offset="1" stop-color="#15B785"/>
</linearGradient>
<linearGradient id="paint1_linear_878_890" x1="0.00976573" y1="10.1988" x2="30.0784" y2="10.6347" gradientUnits="userSpaceOnUse">
<stop stop-color="#2367E8"/>
<stop offset="1" stop-color="#15B785"/>
</linearGradient>
<clipPath id="clip0_878_890">
<rect width="30" height="33" fill="white"/>
</clipPath>
</defs>
</svg>
